<svg height="512pt" viewBox="0 0 512 512" width="512pt" xmlns="http://www.w3.org/2000/svg"><path d="m345.167969 383.71875-178.183594-.019531c-97.492187 9.359375-166.984375 33.625-166.984375 62.09375 0 36.5625 114.617188 66.207031 256 66.207031s256-29.644531 256-66.207031c0-28.453125-69.421875-52.710938-166.832031-62.074219zm0 0" fill="#ebba16"/><path d="m478.277344 54.253906c-29.296875-31.222656-65.296875-54.253906-109.082032-54.253906-52.011718 0-93.617187 38.292969-113.195312 87.894531-19.570312-49.601562-60.855469-87.894531-112.871094-87.894531-2.964844 0-5.886718.125-8.78125.335938 2.039063 6.972656-.363281 15.597656-9.15625 18.644531-14.132812 4.898437-29.527344 7.945312-42.820312 14.980469-12.855469 6.796874-23.949219 17.796874-34.464844 27.734374-9.902344 9.359376-22.5625 17.71875-23.761719 31.914063-.929687 10.925781.359375 16.320313-5.871093 26.191406-4.148438 6.574219-10.945313 7.777344-16.703126 5.832031-6.1875 43.152344 5.296876 94.359376 48.367188 137.191407 13.257812 13.1875 43.960938 44.886719 77.699219 79.949219 6.261719-4.191407 15.070312-4.085938 19.367187 4.574218 2.226563 4.476563 14.777344 6.804688 19.476563 8.925782 6.882812 3.097656 12.039062 7.476562 16.878906 13.25 13.25 15.800781 19.03125 36.261718 32.023437 52.160156 3.9375 4.820312 4.160157 10.339844 2.339844 14.980468 22.6875 23.695313 38.277344 40.027344 38.277344 40.027344s38.921875-40.6875 83.507812-87.085937c-.742187-3.035157-.539062-6.417969 1.210938-9.90625 7.28125-14.527344 17.882812-29.261719 29.695312-40.585938 13.523438-12.976562 28.894532-20.535156 36.722657-38.464843 13.578125-31.117188 31.648437-40.550782 59.375-58.5 5.15625-3.335938 10.160156-2.796876 14.007812-.273438 50.558594-68.394531 33.015625-150.058594-2.242187-187.621094zm0 0" fill="#366db6"/><path d="m459.035156 203.035156c-1.289062 0-2.578125-.273437-3.8125-.875-4.398437-2.109375-6.25-7.378906-4.140625-11.777344 10.265625-21.394531 10.664063-40.515624 1.074219-52.441406-3.054688-3.804687-2.453125-9.359375 1.351562-12.414062 3.796876-3.054688 9.367188-2.453125 12.414063 1.351562 14.015625 17.441406 14.40625 43.371094 1.074219 71.140625-1.527344 3.171875-4.679688 5.015625-7.960938 5.015625zm0 0" fill="#c6e2f7"/><path d="m441.378906 88.277344c-3.726562 0-7.183594-2.375-8.394531-6.101563-2.773437-8.554687-11.132813-15.617187-22.332031-18.890625-12.667969-3.699218-25.804688-1.660156-34.28125 5.324219-3.765625 3.097656-9.328125 2.566406-12.425782-1.210937-3.101562-3.761719-2.5625-9.320313 1.199219-12.421876 12.921875-10.644531 32.246094-13.953124 50.449219-8.640624 16.816406 4.90625 29.597656 16.269531 34.179688 30.375 1.5 4.636718-1.03125 9.621093-5.667969 11.125-.90625.296874-1.824219.441406-2.726563.441406zm0 0" fill="#c6e2f7"/><g fill="#61b872"><path d="m213.496094 172.242188c-18.679688 8.539062-42.292969 1.828124-52.78125-17.273438-9.886719-18-26.359375-22.097656-26.359375-22.097656-69.871094-21.6875-63.621094-40.464844-46.078125-44.59375 7.660156-1.800782 15.589844-2.386719 23.445312-1.988282 39.792969 2.03125 56-23.738281 56-23.738281 3.691406-10.996093-16.160156-40.21875-32.644531-62.285156-40.136719 2.664063-73.230469 25-101.039063 53.988281-16.746093 17.460938-29.332031 44.464844-32.953124 75.21875 5.074218 1.695313 10.019531 3.277344 14.441406 4.652344 8.925781 2.773438 18.089844 4.378906 27.277344 6.046875 35.964843 6.535156 59.683593 46.382813 59.621093 62.570313-.035156 8.289062.652344 16.578124 2.5 24.65625 11.722657 51.351562 48.71875 46.097656 48.71875 46.097656 12.121094 0 22.667969-6.648438 28.152344-16.472656 5.410156-9.683594 12.4375-18.441407 21.730469-24.488282 24.773437-16.109375 27.382812-37.171875 25.476562-51.5-.953125-7.28125-8.78125-11.863281-15.507812-8.792968zm0 0"/><path d="m482.320312 239.308594c-45.433593-15.6875-64.203124-33.539063-71.378906-43.152344-5.5-7.359375-13.699218-12.628906-22.890625-12.691406-13.417969-.089844-43.597656-1.351563-57.023437 36.316406 0 0-8.539063 28.769531 13.761718 58.015625 11.078126 14.527344 11.199219 34.480469-.320312 48.824219-11.808594 14.714844-10.53125 44.375-8.789062 66.964844 49.421874-51.445313 107.113281-111.289063 126.699218-130.769532 7.644532-7.601562 14.222656-15.46875 19.941406-23.507812zm0 0"/><path d="m125.429688 340.472656c33 34.265625 69.183593 72.03125 95.09375 99.113282 4.863281-8.4375 10.210937-16.25 15.597656-23.066407 15.949218-20.152343 14.351562-49.070312-3.0625-67.980469-28.382813-30.816406-75.433594-33.914062-107.628906-8.066406zm0 0"/></g></svg>