<svg height="512pt" viewBox="0 -4 512 512" width="512pt" xmlns="http://www.w3.org/2000/svg"><path d="m69.421875 251.660156h-25.910156c-14.449219 0-26.15625-11.707031-26.15625-26.15625v-17.109375c0-14.449219 11.707031-26.15625 26.15625-26.15625h25.910156zm0 0" fill="#1f436d"/><path d="m355.796875 251.660156h34.589844c14.449219 0 26.15625-11.707031 26.15625-26.15625v-17.109375c0-14.449219-11.707031-26.15625-26.15625-26.15625h-34.589844zm0 0" fill="#1f436d"/><path d="m451.253906 373.152344h-43.390625c-4.789062 0-8.675781-3.886719-8.675781-8.679688 0-4.789062 3.886719-8.675781 8.675781-8.675781h43.390625c4.789063 0 8.679688 3.886719 8.679688 8.675781 0 4.792969-3.890625 8.679688-8.679688 8.679688zm0 0" fill="#afb6bb"/><path d="m173.558594 26.035156h-43.390625c-4.789063 0-8.675781-3.890625-8.675781-8.679687 0-4.789063 3.886718-8.675781 8.675781-8.675781h43.390625c4.789062 0 8.679687 3.886718 8.679687 8.675781 0 4.789062-3.890625 8.679687-8.679687 8.679687zm0 0" fill="#ebba16"/><path d="m173.558594 60.746094h-43.390625c-4.789063 0-8.675781-3.886719-8.675781-8.679688 0-4.789062 3.886718-8.675781 8.675781-8.675781h43.390625c4.789062 0 8.679687 3.886719 8.679687 8.675781 0 4.792969-3.890625 8.679688-8.679687 8.679688zm0 0" fill="#ebba16"/><path d="m451.253906 43.390625h-208.269531c-4.792969 0-8.679687-3.886719-8.679687-8.679687 0-4.789063 3.886718-8.675782 8.679687-8.675782h208.269531c4.789063 0 8.679688 3.886719 8.679688 8.675782 0 4.792968-3.890625 8.679687-8.679688 8.679687zm0 0" fill="#afb6bb"/><path d="m60.746094 138.847656h312.40625v164.882813h-312.40625zm0 0" fill="#c6e2f7"/><path d="m373.152344 138.847656h-312.40625c0-19.167968 15.542968-34.710937 34.710937-34.710937h242.984375c19.167969 0 34.710938 15.542969 34.710938 34.710937zm0 0" fill="#366db6"/><path d="m407.863281 425.21875h-381.828125v-104.125c0-14.378906 11.660156-26.042969 26.042969-26.042969h329.742187c14.382813 0 26.042969 11.664063 26.042969 26.042969zm0 0" fill="#366db6"/><path d="m286.371094 347.117188h-138.84375c-4.792969 0-8.679688-3.886719-8.679688-8.675782 0-4.789062 3.886719-8.679687 8.679688-8.679687h138.84375c4.792968 0 8.679687 3.890625 8.679687 8.679687 0 4.789063-3.886719 8.675782-8.679687 8.675782zm0 0" fill="#e7eced"/><path d="m286.371094 381.832031h-138.84375c-4.792969 0-8.679688-3.890625-8.679688-8.679687 0-4.789063 3.886719-8.679688 8.679688-8.679688h138.84375c4.792968 0 8.679687 3.890625 8.679687 8.679688 0 4.789062-3.886719 8.679687-8.679687 8.679687zm0 0" fill="#e7eced"/><path d="m43.390625 442.578125v34.710937c0 14.378907 11.652344 26.03125 26.03125 26.03125h34.714844c14.378906 0 26.03125-11.652343 26.03125-26.03125v-34.710937zm0 0" fill="#28384c"/><path d="m303.730469 442.578125v34.710937c0 14.378907 11.652343 26.03125 26.03125 26.03125h34.710937c14.382813 0 26.035156-11.652343 26.035156-26.03125v-34.710937zm0 0" fill="#28384c"/><path d="m112.8125 355.796875c0 14.378906-11.65625 26.035156-26.03125 26.035156-14.378906 0-26.035156-11.65625-26.035156-26.035156s11.65625-26.035156 26.035156-26.035156c14.375 0 26.03125 11.65625 26.03125 26.035156zm0 0" fill="#ebba16"/><path d="m373.152344 355.796875c0 14.378906-11.65625 26.035156-26.035156 26.035156-14.375 0-26.03125-11.65625-26.03125-26.035156s11.65625-26.035156 26.03125-26.035156c14.378906 0 26.035156 11.65625 26.035156 26.035156zm0 0" fill="#ebba16"/><path d="m416.542969 451.253906h-399.1875c-9.589844 0-17.355469-7.765625-17.355469-17.355468 0-9.589844 7.765625-17.355469 17.355469-17.355469h399.1875c9.589843 0 17.355469 7.765625 17.355469 17.355469 0 9.589843-7.765626 17.355468-17.355469 17.355468zm0 0" fill="#e7eced"/><path d="m208.269531 69.421875h-34.710937v-69.421875h34.710937c19.171875 0 34.714844 15.542969 34.714844 34.710938 0 19.171874-15.542969 34.710937-34.714844 34.710937zm0 0" fill="#e7eced"/><path d="m503.320312 95.457031c-4.789062 0-8.675781-3.886719-8.675781-8.675781 0-23.925781-19.464843-43.390625-43.390625-43.390625-4.789062 0-8.675781-3.886719-8.675781-8.679687 0-4.789063 3.886719-8.675782 8.675781-8.675782 33.496094 0 60.746094 27.246094 60.746094 60.746094 0 4.789062-3.886719 8.675781-8.679688 8.675781zm0 0" fill="#afb6bb"/><path d="m451.253906 373.152344c-4.789062 0-8.675781-3.886719-8.675781-8.679688 0-4.789062 3.886719-8.675781 8.675781-8.675781 23.925782 0 43.390625-19.464844 43.390625-43.390625v-225.625c0-4.792969 3.886719-8.679688 8.675781-8.679688 4.792969 0 8.679688 3.886719 8.679688 8.679688v225.625c0 33.496094-27.25 60.746094-60.746094 60.746094zm0 0" fill="#afb6bb"/><g fill="#97b6c9"><path d="m95.457031 208.269531c-2.222656 0-4.441406-.847656-6.132812-2.539062-3.394531-3.394531-3.394531-8.878907 0-12.273438l17.355469-17.355469c3.382812-3.394531 8.886718-3.394531 12.269531 0 3.394531 3.394532 3.394531 8.878907 0 12.269532l-17.355469 17.359375c-1.691406 1.691406-3.914062 2.539062-6.136719 2.539062zm0 0"/><path d="m104.136719 242.984375c-2.222657 0-4.445313-.851563-6.136719-2.542969-3.394531-3.394531-3.394531-8.878906 0-12.273437l52.066406-52.066407c3.386719-3.394531 8.886719-3.394531 12.273438 0 3.390625 3.394532 3.390625 8.878907 0 12.269532l-52.070313 52.070312c-1.691406 1.691406-3.914062 2.542969-6.132812 2.542969zm0 0"/></g></svg>