<svg height="512pt" viewBox="0 -9 512 512" width="512pt" xmlns="http://www.w3.org/2000/svg"><path d="m238.933594 162.132812c-4.710938 0-8.535156-3.8125-8.535156-8.53125v-42.667968c0-9.414063-7.652344-17.066406-17.066407-17.066406h-179.199219c-18.824218 0-34.132812-15.308594-34.132812-34.132813s15.308594-34.132813 34.132812-34.132813h196.265626c4.710937 0 8.535156 3.8125 8.535156 8.53125s-3.824219 8.535157-8.535156 8.535157h-196.265626c-9.410156 0-17.066406 7.652343-17.066406 17.066406 0 9.410156 7.65625 17.066406 17.066406 17.066406h179.199219c18.824219 0 34.132813 15.308594 34.132813 34.132813v42.667968c0 4.71875-3.820313 8.53125-8.53125 8.53125zm0 0" fill="#e7eced"/><path d="m281.601562 17.066406c-2.9375 5.035156-4.738281 10.820313-4.738281 17.066406 0 6.246094 1.800781 12.03125 4.738281 17.066407h-51.203124v-34.132813zm0 0" fill="#556080"/><path d="m375.464844 25.601562h-42.664063c-4.710937 0-8.535156-3.816406-8.535156-8.535156s3.824219-8.53125 8.535156-8.53125h42.664063c4.710937 0 8.535156 3.8125 8.535156 8.53125s-3.824219 8.535156-8.535156 8.535156zm0 0" fill="#e7eced"/><path d="m375.464844 59.734375h-42.664063c-4.710937 0-8.535156-3.816406-8.535156-8.535156s3.824219-8.53125 8.535156-8.53125h42.664063c4.710937 0 8.535156 3.8125 8.535156 8.53125s-3.824219 8.535156-8.535156 8.535156zm0 0" fill="#e7eced"/><g fill="#7383bf"><path d="m503.464844 494.933594h-196.265625c-4.710938 0-8.53125-3.816406-8.53125-8.535156s3.820312-8.53125 8.53125-8.53125h196.265625c4.710937 0 8.535156 3.8125 8.535156 8.53125s-3.824219 8.535156-8.535156 8.535156zm0 0"/><path d="m204.800781 494.933594h-102.402343c-4.707032 0-8.53125-3.816406-8.53125-8.535156s3.824218-8.53125 8.53125-8.53125h102.402343c4.710938 0 8.53125 3.8125 8.53125 8.53125s-3.820312 8.535156-8.53125 8.535156zm0 0"/><path d="m298.667969 68.265625h34.132812v-68.265625h-34.132812c-18.851563 0-34.132813 15.28125-34.132813 34.132812 0 18.851563 15.28125 34.132813 34.132813 34.132813zm0 0"/></g><path d="m41.999817 41.999817h3.000183" style="fill:none;stroke-width:2;stroke-linecap:round;stroke-linejoin:round;stroke:#000;stroke-miterlimit:10" transform="scale(8.533333)"/><path d="m42.667969 494.933594h-34.132813c-4.710937 0-8.535156-3.816406-8.535156-8.535156s3.824219-8.53125 8.535156-8.53125h34.132813c4.710937 0 8.53125 3.8125 8.53125 8.53125s-3.820313 8.535156-8.53125 8.535156zm0 0" fill="#7383bf"/><path d="m273.066406 494.933594h-34.132812c-4.710938 0-8.535156-3.816406-8.535156-8.535156s3.824218-8.53125 8.535156-8.53125h34.132812c4.710938 0 8.535156 3.8125 8.535156 8.53125s-3.824218 8.535156-8.535156 8.535156zm0 0" fill="#7383bf"/><path d="m460.800781 324.265625h-25.601562l-13.15625-37.578125c-7.382813-1.546875-12.246094-6.4375-14.746094-12.410156-1.09375-1.6875-2.050781-3.464844-2.636719-5.347656-.640625-1.195313-1.1875-2.433594-1.589844-3.707032-.1875-.398437-.46875-.757812-.636718-1.167968-1.066406-.996094-2.066406-2.054688-2.851563-3.277344-4.300781-3.753906-6.800781-9.144532-7.390625-14.828125-10.921875-9.371094-10.070312-29.476563 2.585938-37.179688l-11.296875-32.292969c-4.804688-13.703124-17.734375-22.875-32.25-22.875h-308.539063c-18.867187 0-34.15625 15.289063-34.15625 34.15625v238.910157h494.929688v-59.734375c0-23.5625-19.105469-42.667969-42.664063-42.667969zm0 0" fill="#366db6"/><path d="m37.000122 28.000031v1.999969" style="fill:none;stroke-width:2;stroke-linecap:round;stroke-linejoin:round;stroke:#000;stroke-miterlimit:10" transform="scale(8.533333)"/><path d="m37.000122 30h2.999725" style="fill:none;stroke-width:2;stroke-linecap:round;stroke-linejoin:round;stroke:#000;stroke-miterlimit:10" transform="scale(8.533333)"/><path d="m196.265625 264.535156h-34.132813l17.066407-76.800781-85.332031 93.867187h34.132812l-17.066406 76.796876zm0 0" fill="#ebba16"/><path d="m393.386719 204.800781h-111.785157v85.332031h141.652344zm0 0" fill="#c6e2f7"/><path d="m469.332031 392.535156h34.132813v-25.601562c0-2.925782-.296875-5.777344-.859375-8.535156h-33.273438zm0 0" fill="#ebba16"/><path d="m460.800781 443.734375c0 28.277344-22.921875 51.199219-51.199219 51.199219-28.277343 0-51.203124-22.921875-51.203124-51.199219s22.925781-51.199219 51.203124-51.199219c28.277344 0 51.199219 22.921875 51.199219 51.199219zm0 0" fill="#28384c"/><path d="m418.3125 460.800781h-17.433594c-4.609375 0-8.34375-3.738281-8.34375-8.355469v-17.433593c0-4.609375 3.734375-8.34375 8.351563-8.34375h17.433593c4.609376 0 8.347657 3.734375 8.347657 8.351562v17.433594c0 4.609375-3.738281 8.347656-8.355469 8.347656zm0 0" fill="#e7eced"/><path d="m153.601562 443.734375c0 28.277344-22.925781 51.199219-51.203124 51.199219-28.277344 0-51.199219-22.921875-51.199219-51.199219s22.921875-51.199219 51.199219-51.199219c28.277343 0 51.203124 22.921875 51.203124 51.199219zm0 0" fill="#28384c"/><path d="m111.113281 460.800781h-17.433593c-4.609376 0-8.347657-3.738281-8.347657-8.355469v-17.433593c0-4.609375 3.738281-8.34375 8.355469-8.34375h17.433594c4.609375 0 8.34375 3.734375 8.34375 8.351562v17.433594c0 4.609375-3.734375 8.347656-8.351563 8.347656zm0 0" fill="#e7eced"/><path d="m384 366.933594h-25.601562c-4.707032 0-8.53125-3.816406-8.53125-8.535156s3.824218-8.53125 8.53125-8.53125h25.601562c4.710938 0 8.535156 3.8125 8.535156 8.53125s-3.824218 8.535156-8.535156 8.535156zm0 0" fill="#1f436d"/><path d="m315.734375 264.535156c-4.710937 0-8.535156-3.816406-8.535156-8.535156v-17.066406c0-4.71875 3.824219-8.535156 8.535156-8.535156s8.53125 3.816406 8.53125 8.535156v17.066406c0 4.71875-3.820313 8.535156-8.53125 8.535156zm0 0" fill="#84a9bf"/><path d="m341.332031 264.535156h-25.597656c-4.710937 0-8.535156-3.816406-8.535156-8.535156s3.824219-8.535156 8.535156-8.535156h25.597656c4.710938 0 8.535157 3.816406 8.535157 8.535156s-3.824219 8.535156-8.535157 8.535156zm0 0" fill="#84a9bf"/></svg>