<svg height="511pt" viewBox="0 0 511 511.99932" width="511pt" xmlns="http://www.w3.org/2000/svg"><g fill="#75348b"><path d="m76.484375 102.097656c-2.039063 0-4.089844-.703125-5.757813-2.132812-3.699218-3.179688-4.113281-8.757813-.925781-12.449219 6.578125-7.636719 13.789063-15.414063 21.433594-23.117187 3.433594-3.460938 9.011719-3.488282 12.492187-.046876 3.457032 3.433594 3.476563 9.023438.042969 12.492188-7.355469 7.40625-14.285156 14.882812-20.585937 22.199219-1.757813 2.023437-4.21875 3.054687-6.699219 3.054687zm0 0"/><path d="m256.390625 512c-2.058594 0-4.113281-.019531-6.164063-.070312-4.871093-.117188-8.730468-4.160157-8.613281-9.03125.113281-4.875 4.21875-8.820313 9.027344-8.617188 20.066406.441406 40.378906-1.5625 59.828125-6.046875 4.746094-1.050781 9.488281 1.871094 10.582031 6.621094s-1.871093 9.492187-6.621093 10.585937c-18.890626 4.351563-38.425782 6.558594-58.039063 6.558594zm-67.566406-9.347656c-.796875 0-1.609375-.117188-2.410157-.347656-20.753906-5.886719-40.722656-14.414063-59.367187-25.34375-4.210937-2.46875-5.613281-7.871094-3.152344-12.082032 2.472657-4.210937 7.875-5.625 12.085938-3.152344 17.355469 10.179688 35.9375 18.113282 55.253906 23.597657 4.6875 1.332031 7.414063 6.210937 6.082031 10.898437-1.105468 3.886719-4.644531 6.429688-8.492187 6.429688zm-106.664063-62.507813c-2.253906 0-4.503906-.859375-6.222656-2.570312-15.328125-15.238281-28.683594-32.351563-39.707031-50.882813-2.492188-4.191406-1.113281-9.605468 3.070312-12.101562 4.183594-2.488282 9.605469-1.121094 12.101563 3.070312 10.269531 17.257813 22.707031 33.191406 36.980468 47.378906 3.460938 3.441407 3.476563 9.023438.035157 12.492188-1.722657 1.746094-3.988281 2.613281-6.257813 2.613281zm-63.179687-106.292969c-3.832031 0-7.355469-2.519531-8.476563-6.375-5.984375-20.648437-9.355468-42.089843-10-63.746093-.148437-4.871094 3.691406-8.941407 8.5625-9.082031 5.113282-.28125 8.941406 3.691406 9.082032 8.5625.601562 20.171874 3.734374 40.140624 9.316406 59.355468 1.359375 4.679688-1.335938 9.578125-6.023438 10.9375-.820312.230469-1.640625.347656-2.460937.347656zm-2.691407-123.429687c-.742187 0-1.503906-.097656-2.253906-.300781-4.710937-1.242188-7.527344-6.070313-6.285156-10.785156 5.308594-20.117188 13.640625-40.203126 24.773438-59.675782 2.417968-4.226562 7.800781-5.703125 12.039062-3.285156 4.226562 2.421875 5.703125 7.8125 3.285156 12.042969-10.363281 18.140625-18.117187 36.785156-23.023437 55.417969-1.050781 3.964843-4.625 6.585937-8.535157 6.585937zm0 0"/><path d="m371.253906 483.890625c-3.179687 0-6.25-1.71875-7.832031-4.730469-2.257813-4.316406-.597656-9.65625 3.71875-11.917968 8.746094-4.589844 17.308594-9.789063 25.433594-15.457032 4.003906-2.789062 9.503906-1.800781 12.296875 2.191406 2.789062 3.996094 1.808594 9.496094-2.191406 12.296876-8.730469 6.089843-17.929688 11.679687-27.339844 16.613281-1.304688.679687-2.699219 1.003906-4.085938 1.003906zm0 0"/><path d="m424.113281 441.378906c-2.214843 0-4.429687-.828125-6.144531-2.488281-3.503906-3.390625-3.59375-8.980469-.195312-12.484375 7.242187-7.46875 14.011718-15.03125 20.144531-22.472656 3.101562-3.761719 8.660156-4.308594 12.421875-1.210938 3.769531 3.097656 4.308594 8.660156 1.210937 12.421875-6.429687 7.8125-13.523437 15.738281-21.097656 23.542969-1.730469 1.789062-4.027344 2.691406-6.339844 2.691406zm0 0"/><path d="m478.226562 368.207031c-1.359374 0-2.753906-.316406-4.042968-.988281-4.324219-2.234375-6.03125-7.566406-3.789063-11.898438 9.09375-17.59375 15.714844-35.914062 19.667969-54.449218 1.015625-4.777344 5.714844-7.824219 10.480469-6.796875 4.773437 1.011719 7.8125 5.699219 6.796875 10.476562-4.28125 20.082031-11.433594 39.890625-21.257813 58.878907-1.570312 3.039062-4.660156 4.777343-7.855469 4.777343zm24.972657-116.753906c-4.660157 0-8.554688-3.65625-8.808594-8.359375-1.042969-19.464844-4.449219-38.710938-10.136719-57.210938-1.429687-4.660156 1.183594-9.597656 5.84375-11.035156 4.652344-1.421875 9.597656 1.183594 11.035156 5.84375 6.109376 19.878906 9.773438 40.5625 10.886719 61.464844.253907 4.875-3.480469 9.023438-8.34375 9.289062-.160156 0-.316406.007813-.476562.007813zm-35.140625-114.363281c-2.984375 0-5.898438-1.515625-7.558594-4.253906-10.046875-16.605469-22.128906-31.992188-35.910156-45.71875-3.460938-3.441407-3.46875-9.027344-.027344-12.480469 3.445312-3.46875 9.03125-3.46875 12.484375-.027344 14.800781 14.742187 27.769531 31.257813 38.558594 49.089844 2.523437 4.175781 1.191406 9.597656-2.984375 12.121093-1.429688.867188-3.011719 1.269532-4.5625 1.269532zm-84.800782-84.433594c-1.542968 0-3.105468-.40625-4.527343-1.253906-16.683594-10-34.558594-17.921875-53.125-23.542969-4.667969-1.421875-7.308594-6.347656-5.886719-11.015625 1.410156-4.664062 6.347656-7.3125 11.007812-5.890625 19.949219 6.046875 39.160157 14.558594 57.078126 25.300781 4.183593 2.507813 5.535156 7.925782 3.039062 12.113282-1.660156 2.761718-4.582031 4.289062-7.585938 4.289062zm-174.617187-30.394531c-4.140625 0-7.828125-2.921875-8.652344-7.132813-.933593-4.785156 2.183594-9.417968 6.964844-10.363281 20.347656-3.988281 41.613281-5.480469 62.269531-4.449219 4.875.238282 8.625 4.378906 8.386719 9.253906-.246094 4.863282-4.449219 8.472657-9.25 8.382813-19.261719-.941406-39.054687.433594-58.007813 4.152344-.582031.105469-1.15625.15625-1.710937.15625zm0 0"/><path d="m123.984375 56.082031c-2.921875 0-5.773437-1.449219-7.460937-4.089843-2.613282-4.113282-1.402344-9.566407 2.710937-12.179688 8.96875-5.703125 18.386719-10.902344 28.011719-15.441406 4.402344-2.066406 9.664062-.191406 11.75 4.222656 2.082031 4.402344.191406 9.664062-4.222656 11.746094-8.949219 4.230468-17.714844 9.058594-26.066407 14.371094-1.464843.917968-3.097656 1.371093-4.722656 1.371093zm0 0"/></g><path d="m335.835938 247.171875h-61.792969l35.3125-167.722656-150.070313 185.378906h61.792969l-44.136719 167.722656zm0 0" fill="#ebba16"/><path d="m424.105469 441.378906c-4.433594 0-8.261719-3.335937-8.757813-7.855468l-8.828125-79.449219c-.539062-4.847657 2.949219-9.207031 7.796875-9.746094 4.816406-.554687 9.207032 2.949219 9.742188 7.792969l7.859375 70.675781 70.671875-7.847656c4.820312-.546875 9.207031 2.949219 9.746094 7.792969.539062 4.847656-2.949219 9.207031-7.792969 9.746093l-79.449219 8.828125c-.335938.042969-.664062.0625-.988281.0625zm0 0" fill="#56246b"/><path d="m106.3125 158.894531c-4.433594 0-8.265625-3.335937-8.757812-7.855469l-7.855469-70.671874-70.675781 7.847656c-4.828126.546875-9.207032-2.949219-9.746094-7.796875-.539063-4.84375 2.949218-9.214844 7.796875-9.746094l79.449219-8.828125c4.808593-.589844 9.207031 2.941406 9.742187 7.796875l8.828125 79.449219c.539062 4.84375-2.949219 9.207031-7.792969 9.746094-.335937.042968-.664062.058593-.988281.058593zm0 0" fill="#56246b"/></svg>